<?xml version="1.0" standalone="no"?>
<!DOCTYPE svg PUBLIC "-//W3C//DTD SVG 20010904//EN"
 "http://www.w3.org/TR/2001/REC-SVG-20010904/DTD/svg10.dtd">
<svg version="1.0" xmlns="http://www.w3.org/2000/svg"
 width="1024.000000pt" height="1024.000000pt" viewBox="0 0 1024.000000 1024.000000"
 preserveAspectRatio="xMidYMid meet">

<g transform="translate(0.000000,1024.000000) scale(0.100000,-0.100000)"
fill="#000000" stroke="none">
<path d="M6124 8083 c-164 -111 -295 -217 -374 -301 l-85 -90 52 -69 c87 -112
165 -251 222 -396 35 -88 85 -266 77 -275 -3 -3 -6 1 -6 10 0 14 -30 35 -60
40 -8 2 -18 8 -22 13 -4 6 -12 11 -18 11 -5 1 -11 2 -12 4 -2 1 -11 3 -21 5
-10 2 -30 15 -44 29 -26 26 -53 34 -53 16 0 -19 -18 -10 -25 13 -8 21 -8 21
-12 -5 -2 -16 -9 -28 -14 -28 -5 0 -9 12 -9 28 -1 26 -1 26 -15 8 -15 -19 -15
-19 -15 2 0 20 -3 21 -21 12 -15 -9 -24 -8 -35 1 -11 9 -18 8 -31 -2 -9 -8
-14 -9 -10 -2 4 7 -5 17 -24 27 -25 12 -30 13 -26 2 7 -17 -25 -24 -73 -15
-19 3 -27 7 -17 8 30 2 19 18 -13 18 -22 0 -30 -5 -29 -16 3 -30 -1 -34 -18
-20 -13 11 -17 11 -20 2 -3 -7 -12 -13 -21 -12 -11 0 -12 2 -4 6 17 7 15 23
-4 23 -11 0 -14 6 -9 20 4 11 2 20 -4 20 -6 0 -15 -9 -21 -20 -14 -27 -38 -25
-43 3 -2 12 -5 -74 -6 -190 -1 -177 -3 -213 -15 -213 -29 0 -46 13 -47 34 0
11 -3 15 -6 9 -2 -7 -20 -13 -40 -13 -26 0 -36 5 -40 19 -3 11 -14 21 -25 24
-14 4 -18 2 -14 -9 3 -8 1 -14 -4 -14 -15 0 -50 33 -44 42 3 4 1 8 -5 8 -5 0
-11 -5 -13 -11 -2 -5 -11 -7 -21 -3 -14 5 -15 9 -6 20 9 11 9 14 0 14 -6 0
-14 -6 -17 -14 -8 -20 -34 -8 -34 15 0 10 -7 19 -15 19 -9 0 -12 -6 -9 -15 4
-8 1 -15 -5 -15 -11 0 -15 13 -12 39 2 7 -2 10 -8 7 -6 -4 -20 3 -31 14 -12
12 -25 18 -28 14 -4 -3 -1 -9 6 -11 6 -3 9 -9 6 -14 -3 -6 -13 -2 -22 9 -14
15 -90 52 -108 52 -2 0 0 -10 6 -22 8 -18 5 -16 -14 6 -13 16 -33 30 -43 31
-10 1 -26 5 -35 9 -11 5 -25 0 -40 -14 -13 -12 -31 -19 -41 -16 -17 4 -17 3
-3 -13 14 -15 14 -17 -4 -17 -11 0 -20 7 -20 14 0 22 68 237 105 332 67 170
172 349 225 383 11 6 20 17 20 23 0 18 -190 198 -278 262 -46 34 -114 78 -150
99 -37 20 -79 45 -93 55 l-27 18 -78 -83 c-182 -193 -286 -355 -398 -621 -24
-55 -47 -114 -51 -131 -6 -20 -10 -24 -12 -13 -7 30 -235 174 -378 239 -39 17
-119 49 -179 71 -59 21 -116 43 -126 48 -16 9 -21 2 -40 -48 -75 -196 -119
-356 -141 -507 -21 -140 -16 -424 9 -585 24 -154 7 -128 190 -278 99 -80 277
-263 345 -352 19 -25 67 -97 108 -160 205 -318 321 -462 594 -740 126 -129
284 -283 350 -343 66 -60 267 -258 446 -440 l327 -332 22 25 c21 24 22 19 4
-25 -3 -8 -1 -15 6 -15 6 0 9 4 6 9 -3 5 1 12 9 15 13 4 14 10 5 26 -9 17 -3
30 43 88 30 37 71 83 92 102 20 19 66 71 103 115 92 112 182 204 287 293 50
42 190 176 313 297 123 121 230 223 237 228 17 9 182 198 215 247 14 19 49 65
80 101 55 67 122 162 176 253 101 169 132 213 185 265 15 14 34 40 43 58 9 17
24 38 34 45 11 7 25 24 32 38 15 30 190 200 206 200 6 0 21 12 35 26 13 15 60
50 104 79 l81 52 19 152 c31 256 11 591 -51 830 -19 74 -91 256 -110 279 -7 9
-43 -11 -38 -20 4 -7 2 -8 -4 -4 -30 19 -391 -128 -492 -200 -25 -17 -71 -46
-103 -64 -31 -18 -64 -41 -72 -53 -17 -24 -11 -34 -76 146 -71 197 -178 379
-304 517 -48 52 -104 114 -123 138 -20 23 -39 42 -43 42 -4 0 -38 -21 -75 -47z
m-2964 -722 c0 -11 3 -11 17 0 15 13 15 12 5 -7 -9 -17 -8 -30 8 -61 20 -41
38 -161 20 -133 -5 8 -10 23 -10 34 0 10 -16 66 -35 123 -19 58 -35 108 -34
111 1 11 28 -52 29 -67z m4187 -103 c-3 -8 -6 -5 -6 6 -1 11 2 17 5 13 3 -3 4
-12 1 -19z m-10 -40 c-3 -8 -6 -5 -6 6 -1 11 2 17 5 13 3 -3 4 -12 1 -19z
m-3162 -84 c265 -155 477 -313 599 -446 213 -233 331 -446 411 -741 20 -73 45
-157 55 -187 11 -30 21 -73 22 -95 4 -76 -2 -1118 -6 -1114 -3 3 -6 45 -7 94
l-2 90 -29 1 c-16 1 -24 -2 -18 -6 8 -5 9 -10 2 -14 -6 -4 -8 -14 -5 -23 6
-15 5 -15 -8 -3 -8 7 -16 25 -17 38 -1 14 -5 28 -8 31 -4 3 -4 -7 -2 -22 4
-22 2 -27 -10 -22 -12 4 -12 3 -3 -9 6 -7 9 -21 5 -30 -3 -9 -1 -16 5 -16 6 0
11 4 11 9 0 5 11 9 25 9 29 0 33 -13 8 -22 -14 -6 -15 -9 -4 -15 9 -6 10 -11
2 -15 -10 -6 -15 6 -12 26 0 4 -9 7 -21 5 -15 -1 -23 4 -26 18 -6 30 -22 43
-22 17 0 -26 -6 -27 -28 -5 -16 16 -16 16 1 10 13 -5 17 -1 16 16 0 12 -3 16
-6 10 -8 -22 -23 -14 -23 12 0 14 -9 34 -20 45 l-20 20 0 -20 c0 -11 7 -37 15
-57 8 -20 13 -38 10 -41 -3 -3 0 -11 6 -19 9 -9 8 -13 0 -13 -6 0 -11 5 -11
11 0 6 -7 8 -16 5 -14 -5 -15 -4 -4 9 18 21 6 30 -14 10 -12 -12 -16 -13 -17
-3 0 7 -5 2 -11 -12 -6 -14 -10 -28 -9 -33 0 -4 -10 -5 -23 -3 -20 4 -24 1
-19 -12 4 -9 11 -21 17 -25 7 -6 4 -7 -6 -3 -10 3 -18 1 -18 -3 0 -5 -3 -18
-7 -28 -6 -16 -5 -16 10 -4 11 9 17 10 17 2 0 -6 -5 -11 -11 -11 -8 0 -8 -5 1
-15 7 -8 10 -15 6 -15 -8 0 -89 110 -240 328 -151 216 -254 418 -366 717 -205
545 -278 927 -292 1527 -3 116 -3 117 17 103 11 -8 56 -35 100 -61z m2301 -64
c-4 -77 -5 -140 -2 -140 2 0 12 8 22 17 9 10 22 18 28 19 17 2 17 -53 1 -60
-8 -3 -15 -1 -15 4 0 6 5 10 10 10 6 0 10 5 10 10 0 6 -7 10 -15 10 -8 0 -15
-7 -15 -15 0 -8 -6 -12 -14 -9 -11 4 -15 -13 -20 -83 -17 -269 -37 -397 -111
-723 -25 -109 -139 -454 -202 -610 -96 -239 -263 -554 -375 -707 -21 -29 -41
-53 -44 -53 -3 0 -2 5 1 10 3 6 -1 18 -10 27 -16 15 -16 18 -1 28 20 15 21 25
1 25 -9 0 -15 9 -15 25 0 14 -5 25 -11 25 -5 0 -7 5 -4 10 4 6 0 24 -9 40 -8
17 -10 32 -5 36 5 3 9 11 9 17 0 7 -4 6 -10 -3 -8 -12 -10 -11 -10 8 0 12 -6
22 -13 22 -17 0 -41 44 -34 62 3 7 6 3 6 -9 1 -13 6 -23 12 -23 7 0 9 10 5 28
-4 15 -8 35 -9 45 -2 21 -17 23 -17 2 0 -8 -5 -15 -11 -15 -5 0 -9 8 -8 18 3
38 -1 51 -16 46 -8 -4 -15 -1 -15 5 0 6 7 11 16 11 13 0 14 3 4 15 -6 8 -8 20
-4 26 4 7 3 9 -3 6 -6 -4 -13 7 -17 26 l-7 32 -15 -25 c-9 -14 -13 -17 -10 -7
3 11 0 17 -9 17 -8 0 -15 4 -15 10 0 5 8 6 17 3 14 -5 13 -1 -5 24 -12 17 -22
42 -22 56 0 14 -7 27 -15 31 -8 3 -15 12 -15 20 0 29 -34 87 -47 82 -16 -7
-17 6 -1 22 10 10 8 12 -11 10 -15 -2 -28 5 -39 22 -9 14 -12 22 -7 18 8 -8
35 9 35 21 0 4 -16 6 -35 5 -19 -2 -35 1 -35 6 0 6 3 9 8 9 27 -5 41 2 35 18
-4 11 -8 12 -11 5 -7 -23 -21 -12 -19 16 2 24 -1 27 -30 27 -17 0 -35 4 -40 9
-5 5 -3 6 5 2 6 -4 12 -2 12 3 0 6 -4 11 -10 11 -17 0 -11 39 32 199 39 146
123 367 153 401 7 8 24 38 38 65 33 66 141 209 241 319 84 92 288 273 334 297
15 8 45 28 67 47 22 18 64 45 95 59 30 15 63 33 73 42 25 21 139 80 156 80 11
1 13 -23 7 -139z m851 108 c-3 -8 -6 -5 -6 6 -1 11 2 17 5 13 3 -3 4 -12 1
-19z m-738 -113 c72 -105 164 -298 156 -327 -4 -16 -4 -19 3 -9 13 18 47 -87
68 -213 19 -116 28 -370 16 -461 -9 -65 -10 -66 -11 -22 0 26 -5 47 -9 47 -5
0 -6 14 -4 31 3 18 1 29 -5 26 -5 -3 -15 -2 -23 4 -10 6 -11 9 -2 9 6 0 12 4
12 9 0 6 -10 8 -21 6 -12 -3 -18 -1 -15 3 4 4 12 7 17 7 5 0 9 5 9 10 0 6 -4
10 -9 10 -5 0 -13 4 -18 9 -4 5 -3 6 3 3 7 -4 14 2 17 13 6 22 -18 29 -25 8
-3 -7 -12 -9 -22 -5 -11 4 -14 12 -9 19 16 27 13 49 -10 58 -20 8 -21 9 -2 11
11 1 23 1 27 1 3 -1 9 5 12 13 5 15 -10 20 -44 15 -8 -1 -12 1 -8 6 4 4 2 14
-5 22 -10 13 -8 14 11 8 13 -5 22 -3 22 3 0 6 -7 11 -16 11 -11 0 -15 6 -11
20 3 11 1 18 -4 14 -5 -3 -9 0 -9 5 0 6 5 11 12 11 6 0 9 3 5 6 -3 3 -8 4 -11
2 -10 -6 -37 42 -30 54 5 8 0 9 -16 5 -24 -6 -56 16 -45 32 3 5 -5 11 -17 14
-14 2 -3 7 30 12 28 4 52 12 52 17 0 5 -5 6 -11 2 -6 -3 -15 0 -20 7 -7 12
-10 12 -18 1 -13 -21 -57 -11 -53 11 2 10 -2 24 -7 31 -9 11 -5 12 16 8 23 -4
26 -2 16 9 -17 18 -16 34 3 53 8 9 11 16 5 16 -6 0 -21 10 -32 21 -17 17 -19
23 -8 30 8 5 9 9 3 9 -6 0 -25 13 -43 29 l-32 29 27 21 c29 23 25 28 -8 10
-16 -9 -19 -8 -16 3 5 15 32 22 54 14 12 -5 10 -10 -10 -28 -19 -17 -23 -27
-16 -38 7 -12 12 -12 22 -2 10 10 15 8 26 -10 9 -16 12 -17 8 -4 -5 13 -2 17
8 13 10 -4 13 -1 9 8 -3 8 -9 12 -14 9 -19 -11 -28 7 -17 32 11 24 13 25 25 8
7 -10 13 -13 13 -7 0 6 10 9 23 7 20 -4 20 -4 -3 7 -14 7 -33 12 -42 12 -21 0
-24 28 -7 59 8 15 8 19 0 14 -19 -12 -12 6 12 27 16 15 17 18 5 14 -11 -4 -18
-1 -18 6 0 7 -7 3 -15 -7 -8 -11 -15 -15 -15 -9 0 7 7 19 16 27 8 9 12 16 8
16 -5 0 -3 5 4 12 13 13 4 34 -39 89 -16 20 -29 41 -29 45 1 13 44 -40 99
-121z m-2541 -42 c-1 -104 -3 -135 -9 -103 -5 31 -6 15 -4 -55 2 -55 1 -92 -1
-83 -5 18 -33 14 -46 -6 -13 -19 -20 2 -7 22 10 16 9 23 -3 41 l-16 23 -7 -31
c-4 -17 -11 -31 -16 -31 -5 0 -4 12 2 26 5 15 7 29 5 32 -3 3 -8 -3 -11 -12
-3 -9 -7 -23 -10 -31 -2 -8 3 -19 12 -24 15 -8 15 -10 0 -26 -19 -19 -21 -31
-7 -40 6 -3 7 1 4 9 -9 22 6 19 40 -8 19 -16 24 -26 16 -31 -6 -4 -17 -2 -23
4 -13 13 -71 15 -63 2 3 -4 17 -6 31 -3 18 3 25 0 25 -10 0 -11 8 -14 26 -10
19 3 25 1 20 -7 -4 -6 -16 -11 -26 -11 -10 0 -22 -5 -25 -11 -4 -6 -13 -8 -21
-5 -8 3 -14 1 -14 -4 0 -5 -9 -7 -20 -5 -21 4 -46 -28 -35 -45 3 -6 1 -10 -5
-10 -8 0 -8 -6 0 -20 10 -19 4 -68 -7 -56 -7 6 -53 -40 -53 -54 0 -5 5 -10 10
-10 6 0 10 5 10 10 0 6 7 10 16 10 10 0 14 6 10 15 -3 9 0 15 9 15 7 0 15 8
17 18 3 14 5 13 10 -6 3 -12 2 -20 -3 -16 -5 3 -12 -3 -16 -13 -12 -31 -30
-43 -69 -43 -33 0 -35 2 -23 17 12 14 12 16 -1 11 -9 -3 -14 -16 -13 -33 1
-17 -5 -34 -15 -42 -9 -8 -11 -12 -4 -8 14 7 15 -10 2 -40 -6 -13 -9 -15 -9
-5 -1 13 -2 13 -11 0 -6 -9 -5 -17 3 -22 7 -4 8 -8 2 -8 -5 0 3 -11 19 -25 21
-18 25 -25 13 -25 -10 0 -17 5 -17 10 0 6 -7 10 -17 10 -13 0 -12 -3 5 -19 23
-19 29 -41 12 -41 -5 0 -10 -20 -10 -45 0 -25 -5 -45 -11 -45 -10 0 -7 -44 8
-125 3 -16 2 -27 -2 -23 -12 11 -35 198 -35 285 0 97 23 272 49 375 42 161
151 375 245 475 32 35 60 63 61 63 2 0 3 -66 3 -147z m2470 72 c-3 -3 -9 2
-12 12 -6 14 -5 15 5 6 7 -7 10 -15 7 -18z m-1053 5 c3 -5 1 -10 -4 -10 -6 0
-11 5 -11 10 0 6 2 10 4 10 3 0 8 -4 11 -10z m1842 -32 c-3 -7 -5 -2 -5 12 0
14 2 19 5 13 2 -7 2 -19 0 -25z m-1487 -32 c0 -3 -4 -8 -10 -11 -5 -3 -10 -1
-10 4 0 6 5 11 10 11 6 0 10 -2 10 -4z m70 -56 c-6 -11 -13 -20 -16 -20 -3 0
-1 7 4 16 5 9 7 26 5 38 -4 19 -3 19 7 4 8 -13 8 -23 0 -38z m1407 18 c-3 -7
-5 -2 -5 12 0 14 2 19 5 13 2 -7 2 -19 0 -25z m-1380 0 c-3 -8 -6 -5 -6 6 -1
11 2 17 5 13 3 -3 4 -12 1 -19z m68 -35 l18 -28 -24 21 c-13 12 -30 19 -36 17
-7 -3 -13 0 -13 6 0 22 38 10 55 -16z m510 17 c3 -5 1 -10 -4 -10 -6 0 -11 5
-11 10 0 6 2 10 4 10 3 0 8 -4 11 -10z m-1868 -16 c-3 -3 -12 -4 -19 -1 -8 3
-5 6 6 6 11 1 17 -2 13 -5z m38 -12 c-3 -3 -11 0 -18 7 -9 10 -8 11 6 5 10 -3
15 -9 12 -12z m1272 1 c-4 -3 -1 -13 6 -22 11 -14 10 -14 -5 -2 -16 12 -16 31
-1 31 4 0 3 -3 0 -7z m-1067 -63 c0 -5 -5 -10 -11 -10 -5 0 -7 5 -4 10 3 6 8
10 11 10 2 0 4 -4 4 -10z m-892 -77 c-2 -9 -9 -18 -16 -19 -7 -1 -8 0 -3 2 6
3 7 12 4 20 -3 8 0 14 7 14 6 0 10 -8 8 -17z m2517 -13 c3 -5 1 -10 -4 -10 -6
0 -11 5 -11 10 0 6 2 10 4 10 3 0 8 -4 11 -10z m-1455 -4 c0 -2 -7 -7 -16 -10
-8 -3 -12 -2 -9 4 6 10 25 14 25 6z m-1020 -26 c0 -5 -4 -10 -10 -10 -5 0 -10
-5 -10 -10 0 -7 6 -7 20 0 11 6 20 7 20 2 0 -5 -11 -14 -24 -20 -20 -9 -28 -7
-47 9 -12 10 -19 22 -15 26 4 4 11 1 17 -7 8 -13 11 -13 20 3 11 18 29 23 29
7z m2497 4 c-3 -3 -12 -4 -19 -1 -8 3 -5 6 6 6 11 1 17 -2 13 -5z m-1264 -41
c-7 -2 -19 -2 -25 0 -7 3 -2 5 12 5 14 0 19 -2 13 -5z m1311 -25 c-10 -16 -22
-7 -17 13 4 15 8 17 14 8 4 -7 5 -17 3 -21z m-37 16 c-3 -3 -12 -4 -19 -1 -8
3 -5 6 6 6 11 1 17 -2 13 -5z m-2507 -78 c0 -2 -7 -7 -16 -10 -8 -3 -12 -2 -9
4 6 10 25 14 25 6z m-55 -19 c-10 -8 -15 -19 -11 -25 4 -7 3 -12 -3 -12 -5 0
-12 4 -16 9 -6 11 21 41 38 41 6 0 3 -6 -8 -13z m-47 -11 c-16 -12 -38 -50
-38 -63 1 -4 8 4 16 20 8 15 18 27 22 27 12 -1 44 -50 32 -50 -6 0 -9 -8 -6
-17 3 -10 1 -25 -5 -33 -8 -12 -9 -11 -5 5 5 16 1 21 -19 23 -19 1 -23 -2 -19
-16 5 -15 4 -15 -6 1 -12 19 -21 84 -13 102 2 6 15 11 29 11 20 0 23 -2 12
-10z m68 -54 c-17 -16 -18 -16 -5 5 7 12 15 20 18 17 3 -2 -3 -12 -13 -22z
m-11 -32 c3 -5 1 -10 -4 -10 -6 0 -11 5 -11 10 0 6 2 10 4 10 3 0 8 -4 11 -10z
m2600 0 c3 -5 1 -10 -4 -10 -6 0 -11 5 -11 10 0 6 2 10 4 10 3 0 8 -4 11 -10z
m30 -48 c-3 -3 -11 0 -18 7 -9 10 -8 11 6 5 10 -3 15 -9 12 -12z m25 -58 c0
-4 -9 1 -20 11 -11 10 -20 23 -20 28 0 6 9 1 20 -11 11 -12 20 -24 20 -28z
m36 -10 c-3 -8 -10 -14 -16 -14 -7 0 -8 6 -2 18 5 9 7 24 5 32 -3 9 0 8 7 -3
7 -10 9 -25 6 -33z m-2786 4 c0 -16 -3 -19 -9 -10 -6 10 -10 10 -21 -3 -7 -8
-17 -15 -22 -15 -5 0 3 11 18 25 33 31 34 31 34 3z m-80 -8 c0 -5 -4 -10 -10
-10 -5 0 -10 5 -10 10 0 6 5 10 10 10 6 0 10 -4 10 -10z m-20 -64 c0 -2 -8
-10 -17 -17 -16 -13 -17 -12 -4 4 13 16 21 21 21 13z m-11 -45 c7 -5 9 -11 5
-14 -5 -3 -15 1 -22 9 -14 16 -5 18 17 5z m2926 -31 c3 -5 2 -10 -4 -10 -5 0
-13 5 -16 10 -3 6 -2 10 4 10 5 0 13 -4 16 -10z m-2901 -63 c-3 -8 -12 -18
-20 -21 -11 -4 -10 0 3 18 20 26 27 28 17 3z m3023 -259 c-3 -8 -6 -5 -6 6 -1
11 2 17 5 13 3 -3 4 -12 1 -19z m-1477 -297 c0 -4 -9 -7 -20 -7 -11 0 -20 6
-20 12 0 7 8 10 20 7 11 -3 20 -8 20 -12z m-40 -24 c0 -5 -4 -5 -10 -2 -5 3
-10 14 -10 23 0 15 2 15 10 2 5 -8 10 -19 10 -23z m4 -29 c-3 -4 -9 -8 -15 -8
-5 0 -9 4 -9 8 0 5 7 9 15 9 8 0 12 -4 9 -9z m3 -24 c-3 -3 -12 -4 -19 -1 -8
3 -5 6 6 6 11 1 17 -2 13 -5z m6 -31 c-7 -2 -19 -2 -25 0 -7 3 -2 5 12 5 14 0
19 -2 13 -5z m136 -89 c6 -15 10 -29 7 -31 -2 -2 -7 5 -11 16 -3 12 -11 21
-16 21 -5 0 -9 5 -9 10 0 19 17 10 29 -16z m115 -229 c5 -22 4 -26 -4 -15 -5
8 -10 24 -10 34 0 26 6 18 14 -19z m31 -85 c3 -5 1 -10 -4 -10 -6 0 -11 5 -11
10 0 6 2 10 4 10 3 0 8 -4 11 -10z m12 -92 c-3 -7 -5 -2 -5 12 0 14 2 19 5 13
2 -7 2 -19 0 -25z m53 -69 c0 -11 -4 -17 -10 -14 -5 3 -10 13 -10 21 0 8 5 14
10 14 6 0 10 -9 10 -21z m-420 -280 c0 -18 -2 -19 -15 -9 -8 7 -15 16 -15 21
0 5 7 9 15 9 9 0 15 -9 15 -21z m490 17 c0 -2 -8 -10 -17 -17 -16 -13 -17 -12
-4 4 13 16 21 21 21 13z m-620 -66 c0 -5 -2 -10 -4 -10 -3 0 -8 5 -11 10 -3 6
-1 10 4 10 6 0 11 -4 11 -10z m28 -15 c-3 -3 -9 2 -12 12 -6 14 -5 15 5 6 7
-7 10 -15 7 -18z m-130 -144 c11 -7 11 -9 -1 -14 -16 -6 -27 0 -27 15 0 10 11
10 28 -1z m13 -48 c13 -16 12 -17 -3 -4 -17 13 -22 21 -14 21 2 0 10 -8 17
-17z m69 -63 c0 -5 -2 -10 -4 -10 -3 0 -8 5 -11 10 -3 6 -1 10 4 10 6 0 11 -4
11 -10z"/>
<path d="M4957 4751 c4 -20 2 -22 -10 -13 -12 10 -14 8 -11 -14 1 -15 7 -31
12 -36 6 -6 8 -17 5 -24 -3 -8 0 -14 6 -14 8 0 10 11 6 33 -7 37 13 64 40 53
22 -8 18 -25 -5 -21 -24 5 -34 -9 -22 -32 8 -14 10 -14 17 7 6 18 9 20 16 9 6
-10 9 -11 9 -1 0 6 6 12 14 12 9 0 12 7 9 20 -4 16 -14 20 -43 20 -22 0 -40 5
-43 13 -2 6 -2 1 0 -12z"/>
<path d="M4894 4629 c-3 -5 3 -20 13 -35 15 -24 17 -25 24 -8 3 11 3 24 -2 30
-5 6 -7 13 -4 16 3 2 -2 5 -10 5 -9 0 -18 -4 -21 -8z m27 -16 c13 -16 12 -17
-3 -4 -17 13 -22 21 -14 21 2 0 10 -8 17 -17z"/>
<path d="M5511 5374 c0 -11 3 -14 6 -6 3 7 2 16 -1 19 -3 4 -6 -2 -5 -13z"/>
<path d="M5662 5045 c0 -16 2 -22 5 -12 2 9 2 23 0 30 -3 6 -5 -1 -5 -18z"/>
<path d="M5766 4813 c-6 -14 -5 -15 5 -6 7 7 10 15 7 18 -3 3 -9 -2 -12 -12z"/>
<path d="M5740 4790 c0 -5 5 -10 11 -10 5 0 7 5 4 10 -3 6 -8 10 -11 10 -2 0
-4 -4 -4 -10z"/>
<path d="M6570 7050 c0 -5 5 -10 11 -10 5 0 7 5 4 10 -3 6 -8 10 -11 10 -2 0
-4 -4 -4 -10z"/>
<path d="M6580 6962 c0 -10 7 -19 15 -19 10 0 12 4 5 12 -5 7 -7 15 -3 18 3 4
1 7 -5 7 -7 0 -12 -8 -12 -18z"/>
<path d="M6560 6932 c0 -5 12 -14 26 -21 20 -9 25 -9 22 1 -3 7 -9 13 -14 13
-5 0 -15 4 -21 8 -7 5 -13 4 -13 -1z"/>
<path d="M6575 6770 c-3 -5 -1 -10 4 -10 6 0 11 5 11 10 0 6 -2 10 -4 10 -3 0
-8 -4 -11 -10z"/>
<path d="M6590 6634 c-14 -7 -21 -14 -16 -14 5 0 3 -7 -4 -15 -10 -12 -10 -15
4 -15 9 0 16 7 16 15 0 8 4 15 9 15 5 0 11 7 15 15 3 8 4 15 3 14 -1 -1 -13
-7 -27 -15z"/>
<path d="M6670 6559 c0 -5 9 -9 20 -9 11 0 20 2 20 4 0 2 -9 6 -20 9 -11 3
-20 1 -20 -4z"/>
<path d="M6610 6530 c0 -5 5 -10 10 -10 6 0 10 5 10 10 0 6 -4 10 -10 10 -5 0
-10 -4 -10 -10z"/>
<path d="M6673 6490 c-1 -11 1 -20 5 -20 4 0 18 -3 32 -6 22 -4 21 -3 -5 9
l-30 15 25 10 25 11 -25 0 c-19 1 -26 -4 -27 -19z"/>
<path d="M6755 6479 c-3 -4 2 -6 10 -5 21 3 28 13 10 13 -9 0 -18 -4 -20 -8z"/>
<path d="M6747 6454 c-13 -13 -8 -22 11 -19 9 1 24 -3 32 -9 13 -10 13 -9 1 6
-7 10 -17 16 -21 13 -5 -3 -10 0 -12 6 -2 5 -7 7 -11 3z"/>
<path d="M6713 6422 c1 -14 5 -18 11 -12 7 7 6 14 -1 21 -9 9 -12 7 -10 -9z"/>
<path d="M6740 6401 c-7 -15 -7 -19 5 -17 8 1 18 6 22 11 5 4 2 5 -6 0 -11 -6
-13 -4 -8 8 9 23 0 21 -13 -2z"/>
<path d="M6780 6376 c0 -2 7 -7 16 -10 8 -3 12 -2 9 4 -6 10 -25 14 -25 6z"/>
<path d="M6720 6360 c0 -6 11 -8 26 -6 20 4 24 2 20 -10 -3 -9 -2 -12 5 -9 5
4 8 12 6 18 -4 14 -57 21 -57 7z"/>
<path d="M6808 6333 c7 -3 16 -2 19 1 4 3 -2 6 -13 5 -11 0 -14 -3 -6 -6z"/>
<path d="M6750 6310 c-8 -5 -19 -6 -25 -2 -5 3 -5 -1 2 -9 7 -8 10 -28 7 -44
-5 -29 -5 -29 15 -11 22 20 28 31 11 21 -5 -3 -10 -4 -10 0 0 3 11 9 23 14 13
5 24 15 24 23 0 16 -27 20 -47 8z m34 -8 c2 -4 -4 -8 -14 -8 -10 0 -16 4 -14
8 3 4 9 8 14 8 5 0 11 -4 14 -8z"/>
<path d="M6795 6241 c-3 -5 -2 -12 3 -15 5 -3 9 1 9 9 0 17 -3 19 -12 6z"/>
<path d="M6780 6210 c0 -13 18 -22 24 -11 3 5 -1 11 -9 15 -8 3 -15 1 -15 -4z"/>
<path d="M6823 6145 c0 -38 2 -53 4 -32 2 20 2 52 0 70 -2 17 -4 1 -4 -38z"/>
<path d="M3941 6990 c3 -33 -2 -45 -11 -25 -8 17 -9 15 -7 -10 2 -32 23 -62
35 -50 4 4 1 10 -5 12 -19 7 -16 23 5 23 13 0 14 2 3 9 -7 5 -11 13 -8 18 3 5
1 15 -4 23 -9 13 -10 13 -8 0z"/>
<path d="M3985 6971 c-3 -5 -1 -12 5 -16 5 -3 10 -14 10 -23 0 -15 -2 -15 -10
-2 -6 9 -10 10 -10 3 0 -6 5 -15 10 -18 6 -3 10 -13 10 -21 0 -8 -4 -13 -8
-10 -5 3 -9 -1 -9 -9 0 -18 13 -20 21 -2 3 6 3 -1 -1 -18 -3 -17 -2 -26 3 -22
12 12 13 117 1 117 -5 0 -4 7 3 15 10 12 10 15 -3 15 -9 0 -18 -4 -22 -9z"/>
<path d="M3896 6906 c3 -9 13 -16 22 -16 8 0 13 1 11 3 -2 1 -12 9 -22 16 -15
12 -17 12 -11 -3z"/>
<path d="M3877 6893 c-10 -9 -9 -23 1 -23 5 0 9 7 9 15 0 17 -1 18 -10 8z"/>
<path d="M3900 6839 c0 -5 5 -7 10 -4 6 3 10 8 10 11 0 2 -4 4 -10 4 -5 0 -10
-5 -10 -11z"/>
<path d="M3842 6738 c-7 -7 -12 -16 -12 -21 0 -5 7 -1 16 8 9 9 14 18 12 20
-2 3 -10 -1 -16 -7z"/>
<path d="M3810 6550 c0 -5 5 -10 11 -10 5 0 7 5 4 10 -3 6 -8 10 -11 10 -2 0
-4 -4 -4 -10z"/>
<path d="M3760 6505 c0 -8 4 -15 10 -15 5 0 7 7 4 15 -4 8 -8 15 -10 15 -2 0
-4 -7 -4 -15z"/>
<path d="M3914 6571 c4 -5 1 -11 -5 -13 -7 -2 -4 -10 7 -18 16 -14 17 -13 11
3 -3 9 -2 17 4 17 6 0 7 5 4 10 -3 6 -11 10 -16 10 -6 0 -8 -4 -5 -9z"/>
<path d="M5365 7150 c-3 -6 1 -13 10 -16 19 -8 30 0 20 15 -8 14 -22 14 -30 1z"/>
<path d="M5726 7128 c3 -4 12 -8 20 -8 8 0 14 4 14 8 0 4 -9 8 -19 8 -11 0
-17 -4 -15 -8z"/>
<path d="M4560 6999 c0 -5 5 -7 10 -4 6 3 10 8 10 11 0 2 -4 4 -10 4 -5 0 -10
-5 -10 -11z"/>
<path d="M4540 6980 c0 -5 5 -10 11 -10 5 0 7 5 4 10 -3 6 -8 10 -11 10 -2 0
-4 -4 -4 -10z"/>
<path d="M4740 6981 c0 -6 5 -13 10 -16 6 -3 10 1 10 9 0 9 -4 16 -10 16 -5 0
-10 -4 -10 -9z"/>
<path d="M4910 6920 c-9 -6 -10 -10 -3 -10 6 0 15 5 18 10 8 12 4 12 -15 0z"/>
<path d="M5130 6805 c0 -8 4 -15 10 -15 5 0 7 7 4 15 -4 8 -8 15 -10 15 -2 0
-4 -7 -4 -15z"/>
<path d="M7992 6538 c-4 -52 -54 -194 -119 -333 -36 -77 -78 -167 -93 -200
-68 -148 -87 -186 -143 -284 -130 -229 -208 -335 -421 -570 -159 -176 -188
-205 -337 -337 -184 -162 -431 -327 -628 -419 -89 -41 -163 -75 -166 -75 -3 0
-102 -47 -220 -105 -117 -57 -244 -113 -282 -123 -101 -27 -146 -54 -195 -120
-37 -48 -42 -60 -31 -70 7 -7 13 -18 13 -24 0 -7 -7 -3 -15 8 -14 18 -14 18
-13 -8 2 -20 8 -28 23 -29 17 -1 16 -2 -5 -9 -17 -5 2 -8 59 -9 46 -1 82 -3
79 -6 -8 -8 -383 -8 -464 0 -45 5 -71 12 -71 19 0 7 6 13 13 13 7 0 11 -5 7
-10 -3 -5 4 -4 14 2 11 6 23 7 27 3 4 -3 4 2 0 12 -4 12 -9 14 -14 6 -5 -8
-10 -7 -18 3 -9 11 -8 13 6 12 9 0 23 -4 30 -9 8 -5 12 0 12 14 0 12 -4 19 -9
15 -5 -3 -13 0 -17 6 -4 7 -3 9 4 5 6 -3 13 -2 17 4 4 7 12 7 26 0 14 -8 19
-7 19 2 0 9 3 9 11 -2 9 -13 10 -13 6 0 -2 8 -11 14 -20 12 -8 -1 -18 2 -22 8
-10 16 -15 50 -7 49 19 -3 29 2 29 16 0 8 -3 13 -5 10 -3 -3 -25 13 -49 35
-47 44 -79 60 -122 60 -60 0 -340 135 -333 161 1 6 -2 8 -7 5 -10 -7 -61 10
-141 47 -30 14 -84 37 -120 51 -147 60 -451 246 -580 356 -427 364 -697 703
-870 1091 -62 139 -187 469 -205 539 -9 36 -21 72 -26 80 -7 11 -8 8 -3 -10 4
-14 9 -32 11 -40 2 -8 -7 9 -21 38 -27 56 -41 68 -34 27 3 -13 2 -22 -2 -20
-7 4 -12 -37 -11 -87 0 -20 -4 -26 -15 -21 -10 3 -12 0 -8 -10 3 -8 1 -18 -5
-22 -6 -3 -11 -18 -11 -33 0 -21 2 -24 10 -12 6 9 10 10 10 3 0 -6 -4 -15 -10
-18 -28 -17 9 -273 74 -504 25 -90 51 -170 57 -177 7 -8 10 -16 8 -18 -7 -6
-134 -26 -167 -26 -30 0 -32 -2 -32 -37 0 -154 131 -642 233 -874 152 -342
262 -520 483 -779 312 -367 753 -641 1294 -804 247 -75 403 -100 695 -112 761
-32 1546 283 2098 841 215 217 475 627 595 938 74 191 184 575 202 707 6 41
13 85 15 96 4 19 -1 22 -59 28 -36 3 -83 13 -106 21 -23 8 -47 12 -53 8 -6 -3
-7 -1 -3 5 4 7 15 12 24 12 13 0 14 2 3 9 -9 6 -10 11 -2 15 6 4 11 4 12 -1 1
-16 31 122 31 144 0 13 4 21 8 18 7 -5 30 46 30 67 0 5 -15 23 -32 40 -27 25
-29 28 -8 17 14 -8 28 -18 32 -24 12 -17 19 1 10 26 -7 18 -5 28 8 39 20 17
45 111 37 140 -3 11 -2 18 3 15 11 -7 32 137 33 220 0 54 -5 82 -24 120 -13
28 -26 75 -30 105 -3 30 -6 43 -7 28z m-9 -596 c3 8 6 8 6 2 1 -6 -7 -18 -16
-25 -10 -7 -15 -10 -11 -5 4 5 3 18 -3 30 -9 20 -9 20 4 3 11 -14 16 -15 20
-5z m-26 -144 c-3 -8 -6 -5 -6 6 -1 11 2 17 5 13 3 -3 4 -12 1 -19z m-40 5
c-4 -3 -2 -12 5 -20 8 -10 8 -17 -1 -26 -10 -9 -11 -8 -6 4 4 10 1 20 -4 24
-11 6 -6 25 6 25 4 0 3 -3 0 -7z m-43 -314 c-9 -24 -21 -48 -26 -54 -5 -5 -3
8 5 30 8 22 18 49 21 59 4 10 9 17 12 14 3 -3 -3 -25 -12 -49z m-51 -64 c-3
-9 -8 -14 -10 -11 -3 3 -2 9 2 15 9 16 15 13 8 -4z m17 -13 c0 -5 -7 -17 -15
-28 -14 -18 -14 -17 -4 9 12 27 19 34 19 19z m-5092 -77 c-3 -3 -9 2 -12 12
-6 14 -5 15 5 6 7 -7 10 -15 7 -18z m5062 19 c0 -9 -41 -74 -46 -74 -3 0 0 9
6 20 6 11 8 25 5 30 -4 6 -1 9 7 8 7 -2 12 3 11 10 -2 6 2 12 7 12 6 0 10 -3
10 -6z m-4976 -180 c3 -8 2 -12 -4 -9 -6 3 -10 10 -10 16 0 14 7 11 14 -7z
m4840 -36 c-13 -24 -97 -143 -107 -153 -6 -5 -1 6 11 26 12 20 18 40 14 44 -4
5 -2 6 3 2 6 -3 26 17 44 44 31 44 53 68 35 37z m-4723 -135 c13 -16 12 -17
-3 -4 -17 13 -22 21 -14 21 2 0 10 -8 17 -17z m4589 -54 c-7 -11 -14 -18 -17
-15 -3 3 0 12 7 21 18 21 23 19 10 -6z m-77 -94 c-3 -9 -8 -14 -10 -11 -3 3
-2 9 2 15 9 16 15 13 8 -4z m171 -152 c-29 -59 -49 -91 -52 -80 -2 9 -8 17
-13 17 -6 0 -7 -5 -3 -12 4 -6 3 -8 -3 -5 -6 4 -13 0 -17 -8 -3 -8 -1 -15 3
-15 13 0 21 -27 8 -27 -7 0 -16 -2 -22 -3 -5 -1 -18 -2 -29 -1 -15 1 -10 10
24 44 24 23 47 41 52 40 4 -2 7 1 6 7 -3 10 84 149 90 144 2 -1 -18 -47 -44
-101z m-4669 10 c21 -32 47 -69 59 -82 11 -13 16 -22 11 -18 -6 3 -17 2 -25
-4 -13 -7 -12 -9 2 -9 11 0 16 -6 13 -19 -3 -14 1 -18 11 -14 8 3 14 0 14 -6
0 -6 3 -10 8 -8 8 2 12 -6 12 -24 0 -8 -6 -7 -17 2 -15 13 -15 12 -4 -10 9
-16 16 -20 20 -12 4 6 17 13 29 16 15 3 19 0 15 -12 -5 -12 -7 -12 -14 -1 -5
7 -9 9 -9 3 1 -5 7 -19 15 -29 8 -11 15 -15 15 -8 0 6 7 9 17 5 11 -4 14 -3 9
6 -5 7 -15 10 -25 6 -13 -5 -13 -4 -4 6 10 10 19 7 43 -16 16 -16 28 -30 26
-32 -2 -2 19 -26 45 -53 27 -28 44 -50 39 -50 -15 0 -50 33 -50 47 0 6 -4 15
-10 18 -6 4 -7 -1 -3 -11 4 -10 2 -15 -3 -11 -5 3 -11 -5 -12 -18 -1 -13 5
-26 14 -29 10 -4 14 -12 9 -24 -5 -14 -4 -15 6 -4 21 20 29 14 24 -20 -4 -25
-3 -28 4 -13 8 19 9 18 16 -7 7 -29 20 -37 27 -17 2 7 9 5 17 -5 12 -14 12
-16 -4 -10 -12 5 -16 4 -12 -3 4 -6 1 -14 -5 -17 -7 -4 -3 -4 10 -2 13 3 22 0
21 -7 -4 -36 2 -56 16 -51 8 4 15 2 15 -4 0 -6 -6 -13 -12 -15 -7 -3 3 -6 22
-7 19 -1 29 -4 23 -7 -7 -2 -13 -11 -13 -19 0 -8 6 -11 15 -8 9 4 15 0 15 -10
0 -11 9 -16 28 -17 l27 -1 -25 -8 c-17 -5 -19 -8 -7 -9 20 -1 23 -17 5 -24 -7
-3 -3 -6 10 -6 23 -1 106 -41 84 -41 -21 0 -13 -16 13 -28 16 -7 25 -19 23
-29 -2 -10 3 -18 10 -19 6 -1 15 -3 20 -4 4 -1 10 -2 14 -1 4 0 4 -7 1 -16 -4
-11 -3 -14 5 -9 17 10 15 0 -3 -17 -13 -13 -10 -16 18 -28 41 -17 55 -30 49
-49 -3 -9 2 -7 13 5 16 20 16 20 12 -2 -6 -26 2 -29 22 -10 11 10 11 8 1 -11
-6 -13 -9 -26 -6 -30 3 -3 6 0 6 6 0 7 4 12 10 12 5 0 7 -8 4 -17 -5 -14 -4
-15 4 -4 7 9 19 11 42 6 23 -5 29 -10 19 -16 -10 -6 -9 -9 6 -15 34 -12 46
-25 35 -39 -7 -8 -2 -10 19 -7 24 3 29 0 35 -23 4 -15 17 -36 29 -46 20 -16
20 -18 4 -19 -11 0 -15 4 -11 12 4 7 3 8 -5 4 -15 -10 -7 -22 19 -29 11 -3 18
-1 14 4 -3 5 3 9 13 9 15 0 16 2 3 11 -13 9 -13 10 0 6 8 -2 14 -11 12 -19 -1
-9 4 -18 12 -21 10 -4 13 -1 9 9 -4 10 3 14 23 14 22 0 25 -3 16 -12 -18 -18
-15 -31 6 -26 9 2 25 -4 35 -14 9 -10 13 -18 9 -18 -5 0 -16 -6 -25 -12 -15
-11 -13 -13 15 -13 18 0 36 4 39 9 9 12 31 -3 23 -16 -4 -7 -2 -8 5 -4 6 4 23
1 36 -8 25 -16 29 -35 10 -48 -6 -5 -6 -8 2 -8 7 0 16 7 20 15 6 9 17 12 32 8
23 -6 23 -6 -5 -18 -24 -9 -26 -12 -11 -18 11 -4 16 -3 12 3 -3 6 -1 10 4 10
6 0 11 -5 11 -10 0 -7 6 -7 20 0 14 8 20 8 20 0 0 -7 8 -9 20 -5 21 7 28 -9 8
-21 -7 -4 -8 -3 -4 4 5 8 1 10 -9 5 -13 -4 -14 -8 -4 -14 7 -4 21 -3 30 2 24
12 49 12 29 -1 -12 -7 -11 -10 5 -16 11 -5 20 -3 23 4 7 22 20 12 15 -10 -3
-13 -1 -19 4 -13 10 13 43 16 43 4 0 -5 -6 -9 -12 -10 -17 -1 52 -27 72 -28 8
0 2 6 -15 14 -24 12 -25 13 -5 8 23 -6 53 -10 91 -12 9 -1 20 -8 23 -17 5 -13
3 -14 -7 -6 -7 6 -18 7 -26 3 -10 -6 -4 -11 18 -16 18 -4 30 -9 28 -11 -7 -7
-242 60 -302 85 -11 5 -60 26 -110 46 -305 127 -515 266 -746 495 -129 129
-170 177 -241 285 -121 183 -189 310 -248 458 -65 165 -65 171 -5 80z m4345
-17 c0 -2 -8 -10 -17 -17 -16 -13 -17 -12 -4 4 13 16 21 21 21 13z m205 -160
c-1 -12 -5 -20 -8 -18 -4 1 -11 2 -17 2 -5 0 -7 8 -4 18 5 14 4 14 -4 2 -6 -8
-8 -18 -5 -23 3 -4 -1 -7 -9 -5 -20 5 -57 -37 -47 -53 7 -11 9 -9 10 6 l0 20
9 -20 c6 -13 9 -15 9 -5 1 12 3 12 10 2 7 -11 9 -11 14 2 4 10 1 16 -8 16 -8
0 -15 5 -15 11 0 5 5 7 11 3 6 -3 15 -1 19 6 5 9 9 9 14 1 4 -6 1 -11 -6 -11
-9 0 -9 -3 2 -10 12 -7 18 0 31 32 9 23 22 44 29 46 22 8 -107 -226 -188 -341
-85 -121 -240 -300 -334 -387 -71 -64 -171 -139 -303 -227 -320 -213 -738
-356 -1207 -414 -116 -14 -530 -9 -535 7 -2 5 -19 8 -37 6 -19 -2 -99 9 -177
24 -80 16 -132 30 -116 32 15 2 25 7 22 12 -3 4 1 10 9 13 8 3 13 -1 12 -11
-1 -13 6 -16 29 -15 26 2 27 1 10 -7 -16 -8 -13 -9 17 -7 20 2 34 -1 32 -5 -3
-4 0 -8 5 -8 6 0 11 6 11 13 0 9 2 9 8 0 5 -8 19 -9 55 0 30 6 51 7 55 1 4 -5
15 -15 25 -23 16 -12 18 -12 15 0 -2 8 -7 18 -13 22 -6 5 -2 6 9 3 11 -4 24 0
33 11 13 16 13 16 4 -4 -14 -28 -14 -30 4 -30 8 0 12 4 9 9 -3 4 -1 8 5 8 6 0
8 8 5 18 -4 13 -3 14 4 4 5 -8 12 -13 16 -13 33 5 45 0 40 -16 -5 -15 -3 -15
10 1 12 15 16 16 17 5 0 -10 2 -11 6 -1 4 10 8 10 21 0 13 -11 15 -10 9 5 -3
9 -2 17 3 17 6 0 10 -7 10 -16 0 -8 5 -12 10 -9 6 4 8 11 5 16 -4 5 1 9 10 9
9 0 13 5 10 10 -3 6 -1 10 4 10 6 0 11 -9 11 -20 0 -11 5 -20 11 -20 6 0 9 6
6 14 -4 9 0 13 11 12 9 -2 18 -8 20 -15 3 -8 8 -7 17 5 12 16 13 16 20 -6 l7
-23 15 24 c12 21 13 22 8 2 -3 -12 -1 -24 4 -28 6 -3 8 0 5 8 -3 8 -1 18 5 22
7 3 11 -3 12 -17 0 -22 1 -22 9 -3 l9 20 1 -20 1 -20 9 20 c7 17 9 16 10 -10
l2 -30 8 30 c7 29 9 28 23 -15 3 -8 6 -3 6 12 1 15 6 30 11 33 7 4 9 -2 4 -19
-8 -32 3 -34 16 -3 5 14 9 16 9 6 1 -17 31 -22 31 -5 0 6 5 4 10 -4 5 -8 10
-10 10 -4 0 6 7 11 15 11 8 0 15 -5 15 -11 0 -6 5 -3 11 7 5 9 7 22 3 29 -5 7
-3 8 5 4 7 -5 10 -13 8 -20 -3 -7 4 -13 14 -13 10 -1 19 4 20 10 0 7 4 3 9 -8
l9 -20 0 20 c1 17 3 18 11 5 9 -13 11 -13 20 0 8 13 10 13 10 1 0 -11 4 -10
13 4 9 12 19 15 28 10 7 -5 32 -10 54 -12 33 -2 36 -1 18 7 -13 5 -23 15 -23
22 0 10 2 10 9 -1 6 -10 19 -12 44 -7 20 4 37 10 40 14 2 4 2 1 1 -5 -2 -7 6
-13 17 -13 11 0 17 4 14 10 -4 6 6 7 25 4 20 -4 30 -3 30 5 0 7 -5 9 -12 5 -7
-4 -9 -3 -5 1 12 14 38 15 30 2 -4 -7 0 -6 10 1 9 8 21 11 26 7 7 -3 8 0 5 10
-4 10 -2 15 7 13 8 -2 13 4 13 14 -1 10 2 15 8 12 5 -3 6 -15 3 -27 -2 -12 -2
-16 1 -9 3 6 14 12 25 12 10 0 19 4 19 8 0 8 14 12 53 13 10 0 15 5 11 11 -5
8 -1 9 10 5 9 -4 14 -3 11 2 -3 5 -1 12 5 16 6 4 7 11 4 17 -4 7 -2 8 4 4 6
-4 9 -13 5 -21 -3 -8 0 -15 6 -15 6 0 11 6 11 13 0 8 4 7 10 -3 8 -13 10 -12
10 4 0 11 3 16 6 13 12 -11 44 13 44 33 0 13 5 18 15 14 10 -4 15 0 16 12 1
18 2 18 6 1 3 -11 -3 -24 -14 -32 -10 -8 -13 -14 -8 -14 18 0 47 27 40 38 -3
7 0 8 9 5 9 -3 13 -11 9 -17 -3 -6 -1 -7 6 -3 6 4 9 12 6 17 -4 5 0 9 7 9 23
0 67 55 57 71 -13 21 -11 31 5 17 8 -7 12 -16 9 -20 -2 -5 1 -8 7 -8 7 0 5 -7
-4 -16 -9 -8 -16 -21 -16 -27 0 -6 8 0 17 13 10 14 17 29 15 33 -1 4 3 7 10 6
28 -3 36 2 42 27 5 19 11 24 26 19 11 -4 20 -2 20 3 0 6 -5 12 -11 14 -12 4
-1 38 13 38 6 0 8 -7 4 -15 -3 -8 -1 -15 4 -15 6 0 10 8 10 18 0 14 2 15 10 2
13 -20 13 -4 0 21 -9 16 -7 19 9 19 25 0 38 20 20 31 -20 13 -4 11 25 -2 20
-9 29 -9 40 0 8 7 20 10 26 6 5 -3 10 -2 10 3 0 16 -13 22 -27 11 -16 -14 -18
7 -4 30 8 12 13 11 31 -10 l21 -24 -7 25 c-4 14 -12 29 -18 33 -7 5 -3 7 9 5
11 -2 23 -7 27 -13 5 -6 8 -6 8 2 0 6 10 10 23 9 12 -2 32 7 45 21 12 13 19
23 13 23 -5 0 -11 7 -15 15 -5 13 -2 14 15 5 11 -6 28 -9 37 -7 14 4 13 6 -5
12 -13 4 -23 11 -23 16 0 12 6 11 39 -6 25 -12 31 -12 47 0 18 14 18 16 2 29
-20 15 -24 36 -7 36 7 0 20 10 30 22 11 11 19 16 19 10 0 -6 -7 -17 -15 -26
-17 -16 -20 -36 -6 -36 5 0 12 11 15 25 4 14 11 23 16 20 6 -4 7 1 3 11 -5 14
-3 16 11 11 21 -8 41 10 41 38 0 11 7 20 15 20 8 0 18 15 23 37 9 39 43 59 50
29 4 -12 5 -11 6 5 0 11 -4 25 -11 32 -6 6 -8 15 -3 19 4 5 10 2 12 -5 3 -6 9
-9 14 -6 6 4 6 11 -1 19 -7 8 -7 20 -1 36 7 17 10 19 10 7 1 -24 51 -21 51 4
0 9 5 20 10 23 6 3 10 2 10 -3 0 -6 7 -13 16 -16 12 -4 15 -2 10 9 -3 9 0 15
10 15 8 0 12 5 9 10 -5 8 -11 8 -20 0 -10 -8 -19 -8 -34 2 -21 13 -28 28 -13
28 4 0 13 -5 20 -12 9 -9 12 -9 12 1 0 7 4 9 10 6 6 -3 7 1 4 9 -3 9 -10 16
-16 16 -5 0 -6 5 -3 10 8 14 35 -6 35 -26 0 -7 4 -15 9 -19 6 -3 8 6 5 20 -4
23 9 35 19 18 5 -10 2 5 -7 34 -6 19 -4 22 11 16 17 -6 17 -6 -1 12 -18 19
-19 19 -38 -4 -10 -13 -21 -21 -24 -18 -3 3 23 28 58 56 34 27 96 84 136 125
73 74 110 92 107 52z m-4287 -176 c12 -19 11 -20 -8 -8 -11 7 -20 16 -20 20 0
15 15 8 28 -12z m138 -81 c19 -22 19 -22 -3 -10 -13 6 -23 16 -23 21 0 15 5
12 26 -11z m3834 13 c0 -5 -15 -19 -32 -32 l-33 -23 29 31 c31 34 36 37 36 24z
m-88 -75 c-12 -13 -20 -26 -16 -29 3 -3 1 -9 -4 -12 -17 -10 -7 22 13 44 10
11 20 20 23 20 3 0 -4 -10 -16 -23z m-3664 -22 c-3 -3 -9 2 -12 12 -6 14 -5
15 5 6 7 -7 10 -15 7 -18z m-103 5 c3 -5 1 -10 -4 -10 -6 0 -11 5 -11 10 0 6
2 10 4 10 3 0 8 -4 11 -10z m3829 -15 c-7 -16 -34 -28 -34 -15 0 6 5 10 10 10
6 0 10 7 10 16 0 8 4 13 10 9 5 -3 7 -12 4 -20z m-3789 -13 c-3 -3 -11 0 -18
7 -9 10 -8 11 6 5 10 -3 15 -9 12 -12z m146 -29 c13 -16 12 -17 -3 -4 -17 13
-22 21 -14 21 2 0 10 -8 17 -17z m3539 -33 c0 -5 -5 -10 -11 -10 -5 0 -7 5 -4
10 3 6 8 10 11 10 2 0 4 -4 4 -10z m-38 -15 c0 -5 -5 -10 -11 -11 -8 -2 -7 -1
0 3 8 4 7 8 -2 15 -11 8 -11 9 -1 6 8 -2 14 -8 14 -13z m-32 -120 c0 -16 -6
-25 -16 -25 -10 0 -12 4 -7 13 4 6 8 15 9 20 3 15 4 17 9 17 3 0 5 -11 5 -25z
m-92 -50 c-3 -3 -9 2 -12 12 -6 14 -5 15 5 6 7 -7 10 -15 7 -18z m-3278 -65
c0 -5 -5 -10 -11 -10 -5 0 -7 5 -4 10 3 6 8 10 11 10 2 0 4 -4 4 -10z m3255 0
c4 -6 11 -8 16 -5 5 4 9 2 9 -4 0 -12 -21 -20 -37 -13 -15 5 -18 32 -4 32 6 0
13 -5 16 -10z m-1475 -10 c0 -5 -5 -10 -11 -10 -5 0 -7 5 -4 10 3 6 8 10 11
10 2 0 4 -4 4 -10z m1383 -46 c3 -4 -1 -13 -9 -21 -18 -18 -27 -13 -18 11 6
17 16 20 27 10z m-150 -107 c3 -8 -1 -14 -9 -14 -8 0 -14 6 -14 14 0 7 4 13 9
13 5 0 11 -6 14 -13z m-175 -156 c-8 -12 -18 -18 -21 -14 -10 10 -8 25 2 19 5
-3 12 1 15 10 4 9 9 14 12 11 3 -3 0 -15 -8 -26z m-108 -67 c0 -8 -4 -12 -10
-9 -5 3 -10 10 -10 16 0 5 5 9 10 9 6 0 10 -7 10 -16z m-396 -153 c-8 -8 -34
-10 -38 -2 -3 4 6 7 19 7 14 0 22 -2 19 -5z m-1107 -67 c-3 -3 -12 -4 -19 -1
-8 3 -5 6 6 6 11 1 17 -2 13 -5z"/>
<path d="M3086 4463 c-6 -14 -5 -15 5 -6 7 7 10 15 7 18 -3 3 -9 -2 -12 -12z"/>
<path d="M3159 4469 c5 -6 7 -17 5 -24 -3 -7 -1 -15 4 -19 13 -8 8 33 -6 44
-8 7 -9 7 -3 -1z"/>
<path d="M3120 4456 c0 -2 8 -10 18 -17 15 -13 16 -12 3 4 -13 16 -21 21 -21
13z"/>
<path d="M3160 4379 c0 -5 5 -7 10 -4 6 3 10 8 10 11 0 2 -4 4 -10 4 -5 0 -10
-5 -10 -11z"/>
<path d="M4026 3503 c-6 -14 -5 -15 5 -6 7 7 10 15 7 18 -3 3 -9 -2 -12 -12z"/>
<path d="M4528 3293 c7 -3 16 -2 19 1 4 3 -2 6 -13 5 -11 0 -14 -3 -6 -6z"/>
<path d="M7484 4456 c-5 -13 -15 -16 -39 -13 -18 3 -38 8 -44 11 -14 9 -14 -7
0 -21 6 -6 18 -9 25 -6 17 6 19 -13 2 -23 -7 -4 -8 -3 -4 5 4 6 4 11 -1 10 -4
-1 -16 1 -26 6 -13 5 -25 1 -40 -14 l-21 -21 26 0 c14 0 29 -6 32 -12 3 -7 3
-3 0 10 -3 12 -1 22 5 22 6 0 11 -5 11 -11 0 -6 9 -8 22 -4 17 6 20 4 15 -9
-12 -30 1 -16 28 30 15 25 24 48 21 51 -3 3 -8 -2 -12 -11z m-27 -48 c-3 -8
-6 -5 -6 6 -1 11 2 17 5 13 3 -3 4 -12 1 -19z m-72 2 c-3 -5 -11 -10 -16 -10
-6 0 -7 5 -4 10 3 6 11 10 16 10 6 0 7 -4 4 -10z"/>
<path d="M7300 4365 c-25 -27 -22 -35 4 -9 14 13 16 14 16 0 0 -8 4 -18 10
-21 6 -3 7 1 4 10 -4 9 -2 15 4 13 5 -2 9 2 9 7 -1 6 -8 9 -15 7 -8 -2 -11 1
-7 7 11 19 -1 12 -25 -14z"/>
<path d="M7141 4130 c0 -8 3 -21 8 -28 6 -11 10 -10 15 4 3 9 4 19 1 22 -3 3
-5 -1 -6 -9 0 -8 -4 -6 -9 6 -6 13 -9 15 -9 5z"/>
<path d="M7070 4040 c0 -5 5 -10 10 -10 6 0 10 5 10 10 0 6 -4 10 -10 10 -5 0
-10 -4 -10 -10z"/>
<path d="M6600 3650 c0 -5 5 -10 10 -10 6 0 10 5 10 10 0 6 -4 10 -10 10 -5 0
-10 -4 -10 -10z"/>
<path d="M5181 3234 c0 -11 3 -14 6 -6 3 7 2 16 -1 19 -3 4 -6 -2 -5 -13z"/>
<path d="M4885 3230 c3 -5 8 -10 11 -10 2 0 4 5 4 10 0 6 -5 10 -11 10 -5 0
-7 -4 -4 -10z"/>
<path d="M5030 3230 c0 -5 7 -7 15 -4 8 4 15 8 15 10 0 2 -7 4 -15 4 -8 0 -15
-4 -15 -10z"/>
<path d="M4848 3223 c7 -3 16 -2 19 1 4 3 -2 6 -13 5 -11 0 -14 -3 -6 -6z"/>
<path d="M5225 3219 c-3 -4 2 -6 10 -5 21 3 28 13 10 13 -9 0 -18 -4 -20 -8z"/>
<path d="M5063 3972 c-7 -4 -9 -13 -4 -20 5 -9 12 -9 27 3 18 15 18 15 0 8
-13 -4 -17 -3 -12 5 8 14 6 15 -11 4z"/>
<path d="M5105 3951 c-3 -5 -2 -12 3 -15 5 -3 9 1 9 9 0 17 -3 19 -12 6z"/>
<path d="M5139 3903 c-13 -16 -12 -17 4 -4 9 7 17 15 17 17 0 8 -8 3 -21 -13z"/>
<path d="M5050 3840 c-9 -6 -10 -10 -3 -10 6 0 15 5 18 10 8 12 4 12 -15 0z"/>
<path d="M5108 2103 c-10 -2 -18 -9 -18 -13 0 -5 -13 -7 -29 -4 -26 5 -29 4
-25 -13 7 -26 107 -49 147 -34 16 6 62 11 103 11 72 0 74 1 74 24 0 24 -2 25
-92 28 -52 2 -99 -1 -107 -7 -10 -7 -16 -6 -18 3 -5 12 -6 13 -35 5z"/>
<path d="M5372 2080 c1 -19 6 -30 16 -30 9 0 12 6 8 16 -3 9 -6 22 -6 30 0 8
-4 14 -9 14 -5 0 -9 -13 -9 -30z"/>
<path d="M4988 2093 c6 -2 18 -2 25 0 6 3 1 5 -13 5 -14 0 -19 -2 -12 -5z"/>
<path d="M5410 2090 c0 -5 7 -10 16 -10 8 0 12 5 9 10 -3 6 -10 10 -16 10 -5
0 -9 -4 -9 -10z"/>
<path d="M4949 2080 c-7 -5 -10 -12 -6 -17 5 -4 12 -1 17 7 7 10 10 11 10 3 0
-7 5 -13 10 -13 6 0 10 4 10 9 0 14 -25 20 -41 11z"/>
<path d="M5010 2064 c0 -8 5 -12 10 -9 6 3 10 10 10 16 0 5 -4 9 -10 9 -5 0
-10 -7 -10 -16z"/>
<path d="M5430 2060 c0 -6 7 -10 15 -10 8 0 15 2 15 4 0 2 -7 6 -15 10 -8 3
-15 1 -15 -4z"/>
</g>
</svg>
